{
    "asset" : {
        "generator" : "Khronos glTF Blender I/O v1.4.40",
        "version" : "2.0"
    },
    "scene" : 0,
    "scenes" : [
        {
            "name" : "Scene",
            "nodes" : [
                0,
                1,
                2,
                3,
                4,
                5
            ]
        }
    ],
    "nodes" : [
        {
            "name" : "Light",
            "rotation" : [
                0.16907575726509094,
                0.7558803558349609,
                -0.27217137813568115,
                0.570947527885437
            ],
            "translation" : [
                4.076245307922363,
                5.903861999511719,
                -1.0054539442062378
            ]
        },
        {
            "name" : "Camera",
            "rotation" : [
                0.483536034822464,
                0.33687159419059753,
                -0.20870360732078552,
                0.7804827094078064
            ],
            "translation" : [
                7.358891487121582,
                4.958309173583984,
                6.925790786743164
            ]
        },
        {
            "mesh" : 0,
            "name" : "Line01",
            "rotation" : [
                -0.016740180552005768,
                0,
                0,
                0.9998598694801331
            ],
            "scale" : [
                0.009999999776482582,
                0.009999999776482582,
                0.009999999776482582
            ],
            "translation" : [
                0,
                0.6284637451171875,
                0.4406861960887909
            ]
        },
        {
            "mesh" : 1,
            "name" : "Sphere01",
            "rotation" : [
                -0.6382157206535339,
                0.19278904795646667,
                -0.16865727305412292,
                -0.7259944677352905
            ],
            "scale" : [
                0.009999999776482582,
                0.009999999776482582,
                0.009999999776482582
            ],
            "translation" : [
                0.047682397067546844,
                0.7091333270072937,
                0.5829125642776489
            ]
        },
        {
            "mesh" : 2,
            "name" : "Sphere02",
            "rotation" : [
                0.18463824689388275,
                -0.013382956385612488,
                -0.982324481010437,
                -0.027717342600226402
            ],
            "scale" : [
                0.009999999776482582,
                0.009999999776482582,
                0.009999999776482582
            ],
            "translation" : [
                -0.04743942990899086,
                0.7091333270072937,
                0.5829125642776489
            ]
        },
        {
            "mesh" : 3,
            "name" : "Sphere02.001",
            "rotation" : [
                0.18463824689388275,
                -0.013382956385612488,
                -0.982324481010437,
                -0.027717342600226402
            ],
            "scale" : [
                0.009999999776482582,
                0.009999999776482582,
                0.009999999776482582
            ],
            "translation" : [
                -0.04743942990899086,
                0.7091333270072937,
                0.5829125642776489
            ]
        }
    ],
    "materials" : [
        {
            "doubleSided" : true,
            "name" : "02 - Default",
            "pbrMetallicRoughness" : {
                "baseColorTexture" : {
                    "index" : 0,
                    "texCoord" : 0
                },
                "roughnessFactor" : 0.858578622341156
            }
        },
        {
            "doubleSided" : true,
            "name" : "03 - Default",
            "pbrMetallicRoughness" : {
                "baseColorTexture" : {
                    "index" : 1,
                    "texCoord" : 0
                },
                "roughnessFactor" : 0.3272828757762909
            }
        },
        {
            "doubleSided" : true,
            "name" : "19 - Default",
            "pbrMetallicRoughness" : {
                "baseColorTexture" : {
                    "index" : 2,
                    "texCoord" : 0
                },
                "roughnessFactor" : 0.858578622341156
            }
        },
        {
            "doubleSided" : true,
            "name" : "19 - Default.001",
            "pbrMetallicRoughness" : {
                "baseColorTexture" : {
                    "index" : 3,
                    "texCoord" : 0
                },
                "roughnessFactor" : 0.858578622341156
            }
        }
    ],
    "meshes" : [
        {
            "name" : "Mesh",
            "primitives" : [
                {
                    "attributes" : {
                        "POSITION" : 0,
                        "NORMAL" : 1,
                        "TEXCOORD_0" : 2
                    },
                    "indices" : 3,
                    "material" : 0
                }
            ]
        },
        {
            "name" : "Mesh.001",
            "primitives" : [
                {
                    "attributes" : {
                        "POSITION" : 4,
                        "NORMAL" : 5,
                        "TEXCOORD_0" : 6
                    },
                    "indices" : 7,
                    "material" : 1
                }
            ]
        },
        {
            "name" : "Mesh.002",
            "primitives" : [
                {
                    "attributes" : {
                        "POSITION" : 8,
                        "NORMAL" : 9,
                        "TEXCOORD_0" : 10
                    },
                    "indices" : 11,
                    "material" : 2
                }
            ]
        },
        {
            "name" : "Mesh.004",
            "primitives" : [
                {
                    "attributes" : {
                        "POSITION" : 12,
                        "NORMAL" : 13,
                        "TEXCOORD_0" : 14
                    },
                    "indices" : 11,
                    "material" : 3
                }
            ]
        }
    ],
    "textures" : [
        {
            "sampler" : 0,
            "source" : 0
        },
        {
            "sampler" : 0,
            "source" : 1
        },
        {
            "sampler" : 0,
            "source" : 1
        },
        {
            "sampler" : 0,
            "source" : 1
        }
    ],
    "images" : [
        {
            "mimeType" : "image/jpeg",
            "name" : "Diffuse_Cow",
            "uri" : "texturas%20vaca/Diffuse_Cow.jpg"
        },
        {
            "mimeType" : "image/jpeg",
            "name" : "Difuse_Cow_eye",
            "uri" : "texturas%20vaca/Difuse_Cow_eye.jpg"
        }
    ],
    "accessors" : [
        {
            "bufferView" : 0,
            "componentType" : 5126,
            "count" : 46608,
            "max" : [
                16.575143814086914,
                21.32040023803711,
                28.694499969482422
            ],
            "min" : [
                -16.575143814086914,
                -49.16154479980469,
                -108.9276351928711
            ],
            "type" : "VEC3"
        },
        {
            "bufferView" : 1,
            "componentType" : 5126,
            "count" : 46608,
            "type" : "VEC3"
        },
        {
            "bufferView" : 2,
            "componentType" : 5126,
            "count" : 46608,
            "type" : "VEC2"
        },
        {
            "bufferView" : 3,
            "componentType" : 5123,
            "count" : 46608,
            "type" : "SCALAR"
        },
        {
            "bufferView" : 4,
            "componentType" : 5126,
            "count" : 2880,
            "max" : [
                1.603446364402771,
                1.603446364402771,
                1.603446364402771
            ],
            "min" : [
                -1.603446364402771,
                -1.603446364402771,
                -1.603446364402771
            ],
            "type" : "VEC3"
        },
        {
            "bufferView" : 5,
            "componentType" : 5126,
            "count" : 2880,
            "type" : "VEC3"
        },
        {
            "bufferView" : 6,
            "componentType" : 5126,
            "count" : 2880,
            "type" : "VEC2"
        },
        {
            "bufferView" : 7,
            "componentType" : 5123,
            "count" : 2880,
            "type" : "SCALAR"
        },
        {
            "bufferView" : 8,
            "componentType" : 5126,
            "count" : 1984,
            "max" : [
                1.603446364402771,
                1.603446364402771,
                1.603446364402771
            ],
            "min" : [
                -1.603446364402771,
                -1.603446364402771,
                -1.603446364402771
            ],
            "type" : "VEC3"
        },
        {
            "bufferView" : 9,
            "componentType" : 5126,
            "count" : 1984,
            "type" : "VEC3"
        },
        {
            "bufferView" : 10,
            "componentType" : 5126,
            "count" : 1984,
            "type" : "VEC2"
        },
        {
            "bufferView" : 11,
            "componentType" : 5123,
            "count" : 2880,
            "type" : "SCALAR"
        },
        {
            "bufferView" : 12,
            "componentType" : 5126,
            "count" : 1984,
            "max" : [
                1.603446364402771,
                1.603446364402771,
                1.603446364402771
            ],
            "min" : [
                -1.603446364402771,
                -1.603446364402771,
                -1.603446364402771
            ],
            "type" : "VEC3"
        },
        {
            "bufferView" : 13,
            "componentType" : 5126,
            "count" : 1984,
            "type" : "VEC3"
        },
        {
            "bufferView" : 14,
            "componentType" : 5126,
            "count" : 1984,
            "type" : "VEC2"
        }
    ],
    "bufferViews" : [
        {
            "buffer" : 0,
            "byteLength" : 559296,
            "byteOffset" : 0
        },
        {
            "buffer" : 0,
            "byteLength" : 559296,
            "byteOffset" : 559296
        },
        {
            "buffer" : 0,
            "byteLength" : 372864,
            "byteOffset" : 1118592
        },
        {
            "buffer" : 0,
            "byteLength" : 93216,
            "byteOffset" : 1491456
        },
        {
            "buffer" : 0,
            "byteLength" : 34560,
            "byteOffset" : 1584672
        },
        {
            "buffer" : 0,
            "byteLength" : 34560,
            "byteOffset" : 1619232
        },
        {
            "buffer" : 0,
            "byteLength" : 23040,
            "byteOffset" : 1653792
        },
        {
            "buffer" : 0,
            "byteLength" : 5760,
            "byteOffset" : 1676832
        },
        {
            "buffer" : 0,
            "byteLength" : 23808,
            "byteOffset" : 1682592
        },
        {
            "buffer" : 0,
            "byteLength" : 23808,
            "byteOffset" : 1706400
        },
        {
            "buffer" : 0,
            "byteLength" : 15872,
            "byteOffset" : 1730208
        },
        {
            "buffer" : 0,
            "byteLength" : 5760,
            "byteOffset" : 1746080
        },
        {
            "buffer" : 0,
            "byteLength" : 23808,
            "byteOffset" : 1751840
        },
        {
            "buffer" : 0,
            "byteLength" : 23808,
            "byteOffset" : 1775648
        },
        {
            "buffer" : 0,
            "byteLength" : 15872,
            "byteOffset" : 1799456
        }
    ],
    "samplers" : [
        {
            "magFilter" : 9729,
            "minFilter" : 9986
        }
    ],
    "buffers" : [
        {
            "byteLength" : 1815328,
            "uri" : "vaca.bin"
        }
    ]
}
